<svg width="140" height="144" viewBox="0 0 140 144" fill="none" xmlns="http://www.w3.org/2000/svg">
<path d="M130.184 61.3997L132.225 63.0339L127.92 64.2051L127.575 64.299L127.552 64.6561L126.514 81.0923L126.481 81.6226L127.012 81.6238C129.691 81.6301 132.168 83.2175 133.243 85.8866L133.244 85.8883C133.588 86.7343 133.764 87.6397 133.762 88.5533L132.996 91.6305C132.271 93.0267 131.051 94.181 129.436 94.8358C128.917 95.0428 128.374 95.1868 127.821 95.2648L127.191 95.3534L127.426 95.9442L128.904 99.6711L129.098 100.158L129.575 99.9422C130.535 99.5078 131.585 99.2848 132.638 99.3208C133.527 99.3553 134.402 99.5497 135.223 99.8947C136.068 100.256 136.836 100.78 137.481 101.437C138.127 102.104 138.638 102.89 138.985 103.752L138.985 103.753C139.676 105.469 139.671 107.306 138.974 109.076C138.251 110.888 136.927 112.224 135.14 112.949C134.638 113.149 134.115 113.291 133.58 113.372L133.523 113.38L133.469 113.402L104.857 124.832L107.237 115.843L107.279 115.683L107.218 115.53L106.673 114.156L106.636 114.064L106.567 113.993L103.124 110.433L102.211 109.49L102.265 110.801L102.602 119.047L95.6534 116.437L95.5587 116.401L95.4576 116.405L95.1003 116.42L94.6008 116.44L94.6207 116.939L94.7998 121.435L94.8064 121.6L94.91 121.729L100.741 128.971L84.1325 129.637L74.9792 130.002L76.6317 127.579L76.9851 127.06L76.4012 126.832L73.0507 125.518L72.2926 125.22L72.3704 126.031C72.4122 126.466 72.4336 126.903 72.4347 127.34L72.4347 127.341C72.4497 130.311 71.4009 133.392 69.2857 136.495C68.1181 138.199 66.6471 139.672 64.9467 140.841C64.0542 141.452 63.0986 141.965 62.0967 142.371C61.1225 142.763 60.1118 143.056 59.0795 143.247L59.0785 143.248C56.9501 143.646 54.6501 143.575 52.2436 143.019L52.2426 143.019C49.8902 142.48 47.4444 141.35 44.9681 139.641C42.8373 138.169 41.0476 136.45 39.6497 134.531C38.2166 132.564 37.2083 130.434 36.6473 128.2C36.081 125.927 36.0012 123.568 36.4217 121.191L36.4218 121.191C36.8377 118.818 37.8235 116.482 39.3555 114.236L39.3595 114.23L39.3633 114.224C39.4198 114.136 39.4716 114.068 39.534 113.985C39.5743 113.932 39.6189 113.873 39.6721 113.799L39.7705 113.662L39.7659 113.493L39.6433 109.045L39.6387 108.88L39.5368 108.75L26.141 91.6753L26.0388 91.5451L25.8791 91.5015L16.6538 88.9872L29.3502 78.9502L28.8523 78.0945L15.1951 83.6297L17.5978 74.3539L17.6391 74.1944L17.5775 74.0417L9.46027 53.8886L9.39859 53.7355L9.25785 53.6492L1.10558 48.6503L13.4496 43.6473L13.6634 43.5606L13.7362 43.3419L26.1369 6.10713L31.624 13.8677L31.7181 14.0007L31.8725 14.0528L48.0685 19.5174L48.0686 19.5175C49.6902 20.0642 51.0967 20.7925 52.2684 21.6777L52.3671 21.7522L52.4892 21.7722L55.4704 22.2589L55.6348 22.2858L55.7825 22.2086L70.645 14.4446L71.833 13.824L70.5288 13.5149L58.6927 10.7098L77.9001 0.67535L91.6767 27.2296L91.8057 27.4783L92.0852 27.4981C92.5358 27.5299 92.9874 27.544 93.4391 27.5403L93.7446 27.5378L93.8817 27.2649L97.8591 19.3534L99.8382 32.1798L99.9235 32.7329L100.464 32.586L125.334 25.8211L131.015 46.8244L120.947 39.979L119.831 39.2201L120.183 40.5229L121.887 46.8266L122.024 47.3307L122.521 47.1727C123.247 46.9424 124.003 46.8274 124.764 46.8319C125.779 46.8382 126.746 47.036 127.62 47.4192L127.62 47.4193C128.456 47.785 129.216 48.3031 129.863 48.9472C130.497 49.5866 131.003 50.3405 131.357 51.1692C131.677 51.9326 131.858 52.746 131.894 53.5715L131.895 53.8915C131.9 56.092 131.464 58.0465 130.624 59.7136L130.623 59.7153C130.439 60.0834 130.254 60.4243 130.062 60.7624L129.852 61.1331L130.184 61.3997ZM127.513 81.1422C127.347 81.1304 127.181 81.1242 127.013 81.1239L127.512 81.1554L127.513 81.1422Z" fill="black" stroke="black"/>
<path d="M65.2652 122.475C66.054 123.932 66.4575 125.341 66.4455 126.699C66.4321 128.224 65.8986 129.733 64.887 131.214L64.8868 131.214C64.2276 132.177 63.3808 132.87 62.3442 133.27C61.3303 133.66 60.2171 133.8 59.0112 133.698C57.8101 133.596 56.5305 133.263 55.1739 132.71C53.8137 132.157 52.4379 131.398 51.0521 130.442C49.4132 129.312 48.063 128.176 47.0107 127.027C45.9617 125.885 45.1826 124.757 44.6844 123.646C44.1883 122.54 43.9553 121.47 44.0047 120.439C44.0479 119.434 44.3715 118.462 44.9387 117.633C45.529 116.768 46.3324 116.12 47.3317 115.69L47.3343 115.689L47.3343 115.689C48.3153 115.274 49.3588 115.026 50.4214 114.957L50.4221 114.957C51.5197 114.887 52.6217 114.948 53.7051 115.137C53.7518 115.145 53.7983 115.153 53.8446 115.161L47.111 110.52C47.1009 110.571 47.0896 110.623 47.0771 110.675M65.2652 122.475L39.5346 122.4C39.8623 120.538 40.6417 118.695 41.8883 116.87L41.8885 116.869C42.2903 116.28 42.7045 115.763 43.1345 115.316L43.136 115.314C43.5537 114.877 43.9874 114.455 44.4363 114.05L44.4367 114.049C44.4553 114.032 44.4738 114.016 44.4923 113.999C44.9014 113.629 45.2829 113.283 45.6264 112.96C46.0044 112.61 46.3195 112.252 46.5704 111.887L46.5718 111.885C46.8013 111.547 46.9683 111.141 47.0771 110.675M65.2652 122.475L66.2587 122.131C67.6469 123.865 68.3356 125.787 68.3446 127.91C68.3535 130.133 67.5331 132.493 65.8246 134.992L65.8243 134.992C64.9152 136.326 63.7659 137.476 62.4355 138.386L62.4348 138.386C61.0995 139.302 59.6058 139.915 57.9504 140.224C56.3073 140.531 54.5221 140.469 52.5878 140.025C50.677 139.585 48.6649 138.648 46.561 137.195L46.5605 137.195C44.7602 135.955 43.2848 134.537 42.1209 132.941C40.9602 131.346 40.1563 129.659 39.7097 127.875L39.7095 127.874C39.2622 126.1 39.205 124.276 39.5346 122.4L65.2652 122.475ZM47.0771 110.675C47.077 110.675 47.0769 110.676 47.0768 110.676L46.5905 110.56L47.0775 110.673C47.0774 110.674 47.0773 110.674 47.0771 110.675Z" fill="white" stroke="black"/>
<path d="M80.826 103.437C80.3609 101.247 79.6346 99.3229 78.6573 97.6573C77.6648 95.973 76.4867 94.6091 75.1253 93.5539L75.1246 93.5533C73.7796 92.5069 72.2211 91.7714 70.5603 91.3991L70.5588 91.3988C68.8814 91.0175 67.0891 91.0217 65.1759 91.4257L65.1758 91.4257C63.2623 91.8293 61.6212 92.5476 60.238 93.5749L60.2368 93.5758C58.8663 94.587 57.7351 95.8895 56.9243 97.3902L56.9239 97.3909C56.1002 98.9098 55.5714 100.634 55.3403 102.576C55.11 104.511 55.2225 106.581 55.6876 108.791L55.6877 108.792C56.1441 110.97 56.8713 112.897 57.8609 114.577C58.8563 116.261 60.0345 117.624 61.3958 118.68C62.7563 119.734 64.2811 120.456 65.9715 120.856C67.6493 121.251 69.4424 121.252 71.3543 120.849L71.3553 120.849C73.2677 120.449 74.9072 119.72 76.2845 118.682C77.6721 117.632 78.7747 116.353 79.5956 114.84C80.4166 113.322 80.9449 111.598 81.176 109.657L80.826 103.437ZM80.826 103.437L80.8363 103.486C81.2924 105.666 81.4041 107.721 81.1761 109.656L80.826 103.437ZM63.6846 107.103L63.6845 107.102C63.3157 105.341 63.0721 103.73 62.9532 102.273L62.9531 102.272C62.8357 100.812 62.8469 99.5263 62.9873 98.4188L62.9875 98.4173C63.1313 97.3098 63.4127 96.3831 63.8614 95.667C64.3219 94.9308 64.9586 94.4554 65.7643 94.2835L65.7648 94.2834C66.568 94.1129 67.347 94.2905 68.0643 94.7777C68.7634 95.2476 69.4001 95.9797 69.9904 96.9302L69.9911 96.9313C70.5802 97.8857 71.1158 99.0583 71.5985 100.444C72.0812 101.83 72.507 103.402 72.876 105.163L63.6846 107.103ZM63.6846 107.103C64.0478 108.833 64.4689 110.392 64.9516 111.778L64.9516 111.778M63.6846 107.103L64.9516 111.778M64.9516 111.778C65.4338 113.162 65.9604 114.332 66.5349 115.29C67.1103 116.248 67.7435 116.98 68.4411 117.454L68.442 117.454M64.9516 111.778L68.442 117.454M68.442 117.454C69.1609 117.94 69.9367 118.12 70.7415 117.949M68.442 117.454L70.7415 117.949M70.7415 117.949C71.5478 117.777 72.1838 117.301 72.6445 116.566M70.7415 117.949L72.6445 116.566M72.6445 116.566C73.0912 115.853 73.3843 114.929 73.5391 113.819L72.6445 116.566Z" fill="white" stroke="black"/>
<path d="M98.7885 101.757L98.6328 101.596L98.4091 101.605L90.3836 101.925L89.8836 101.945L89.9039 102.445L90.1867 109.399L90.207 109.898L90.7063 109.878L95.4288 109.689L95.5299 109.685L95.6215 109.642L98.0491 108.502L98.2851 114.272L95.7715 113.33L95.677 113.295L95.5762 113.299L90.8536 113.487L90.3535 113.507L90.374 114.007L90.7565 123.355L90.7633 123.519L90.8665 123.648L92.9047 126.182L81.5926 126.636L83.4193 123.948L83.5121 123.812L83.5054 123.647L82.5834 101.036L82.5767 100.872L82.4734 100.743L80.4353 98.2089L100.908 97.3895L101.187 104.237L98.7885 101.757ZM123.425 65.5699L122.108 86.3796L119.64 84.2775L119.514 84.17L119.348 84.1592L96.8652 82.6965L96.6992 82.6857L96.5599 82.7764L93.8456 84.5434L95.1652 63.7317L101.978 64.1753L99.2711 66.314L99.0961 66.4522L99.0821 66.6748L98.5564 75.0004L98.525 75.4985L99.023 75.5309L105.938 75.9809L106.438 76.0135L106.47 75.5135L106.772 70.7292L106.778 70.6277L106.744 70.5318L105.865 68.0338L111.592 68.4055L110.404 70.7723L110.358 70.8634L110.352 70.9651L110.049 75.7489L110.018 76.2469L110.516 76.2794L118.072 76.7719L118.572 76.8045L118.603 76.3041L119.123 67.9737L119.137 67.752L118.982 67.5931L116.569 65.1228L123.425 65.5699Z" fill="white" stroke="black"/>
<path d="M109.766 119.322L110.598 116.176L110.64 116.016L110.579 115.863L102.229 94.8363L102.168 94.6828L102.028 94.5958L99.2674 92.885L118.552 85.1795L121.082 91.547L118.001 90.0094L117.801 89.9093L117.593 89.9925L109.878 93.0743L109.415 93.2593L109.599 93.7231L112.167 100.191L112.352 100.657L112.817 100.471L117.251 98.6999L117.346 98.662L117.419 98.5897L119.286 96.7275L121.414 102.084L118.781 102.02L118.679 102.017L118.583 102.055L114.149 103.827L113.686 104.012L113.87 104.475L116.675 111.541L116.86 112.006L117.325 111.82L125.04 108.738L125.247 108.655L125.324 108.445L126.506 105.205L129.053 111.616L109.766 119.322ZM96.1855 86.5193L99.1565 85.2297L97.4529 92.5331L97.0568 92.6914L97.3706 92.8858L96.5746 96.2981L94.4847 93.8132L94.3782 93.6865L94.2171 93.6484L72.281 88.4613L72.1193 88.423L71.9668 88.4892L68.9963 89.7788L73.6673 69.7453L80.3108 71.3154L77.2905 72.9724L77.0948 73.0798L77.0441 73.2973L75.2144 81.1486L75.1013 81.6339L75.5862 81.7486L82.3329 83.3443L82.8212 83.4598L82.9349 82.9711L84.0109 78.3504L84.0336 78.2528L84.017 78.154L83.5695 75.4959L89.1655 76.8204L87.5871 79.0024L87.5281 79.0839L87.5053 79.182L86.4293 83.8028L86.3163 84.2881L86.8012 84.4027L95.8714 86.5472L96.0331 86.5854L96.1855 86.5193ZM42.2478 79.4848L42.0269 79.4458L41.8509 79.585L35.1233 84.9056L34.7326 85.2146L35.0401 85.6065L39.6186 91.4415L39.9285 91.8365L40.3222 91.525L44.282 88.3922L44.361 88.3297L44.4097 88.2414L45.8191 85.6836L49.6796 90.6022L46.8729 91.3785L46.7754 91.4055L46.696 91.4682L42.7362 94.6006L42.3456 94.9095L42.6531 95.3014L48.8095 103.147L48.9116 103.278L49.0713 103.321L52.4738 104.249L42.8774 111.839L42.7754 108.304L42.7706 108.139L42.669 108.01L27.7847 89.0345L27.6825 88.9043L27.5229 88.8607L24.1196 87.9322L41.3627 74.2927L45.9469 80.1364L42.2478 79.4848Z" fill="white" stroke="black"/>
<path d="M68.6381 82.6562L60.3298 92.1136L59.5989 88.655L59.5648 88.4936L59.4413 88.3842L41.4436 72.4338L41.3209 72.3251L41.1576 72.3101L37.6003 71.9836L45.9193 62.5144L46.709 65.9919L46.7446 66.1487L46.8649 66.2554L64.8627 82.2058L64.985 82.3142L65.1477 82.3294L68.6381 82.6562Z" fill="white" stroke="black"/>
<path d="M76.6362 50.2486L76.6364 50.2473C76.7361 49.2568 76.6566 48.2148 76.3967 47.1115L76.8834 46.9968L76.3966 47.1109C76.0627 45.686 75.4456 44.4906 74.551 43.5085L74.5503 43.5078C73.6489 42.5143 72.5405 41.7463 71.2165 41.2115L71.2157 41.2112C69.8908 40.6735 68.3894 40.3719 66.7135 40.3089C65.036 40.2506 63.2814 40.4342 61.4494 40.8701L61.4492 40.8702L49.4569 43.7168L52.1551 45.9955L52.2811 46.1019L52.3191 46.2625L57.8729 69.7572L57.9108 69.9176L57.8459 70.0691L56.4537 73.3185L68.3837 70.4871L65.6852 68.2089L65.5592 68.1025L65.5212 67.942L63.8008 60.6685L63.6859 60.1827L64.1715 60.0671C64.8924 59.8954 65.6392 59.9796 66.3906 60.2944C67.1298 60.6041 67.7354 61.0509 68.1839 61.6434L72.3437 67.1222C73.2496 68.2755 74.2039 68.8815 75.1915 69.0385L75.1918 69.0385C76.2563 69.2082 77.5403 69.1252 79.056 68.7645L79.057 68.7643C79.5341 68.6518 80.0523 68.4816 80.6147 68.2499L80.6157 68.2495C81.1559 68.0284 81.6729 67.7538 82.1589 67.4299L82.159 67.4298C82.6094 67.1299 83.0068 66.7564 83.3345 66.3249C83.4478 66.1754 83.5478 66.0181 83.6346 65.8528C83.0035 66.0103 82.3949 66.0112 81.8204 65.8273L81.8201 65.8272C80.9951 65.5625 80.2894 65.0625 79.7105 64.3391L79.7022 64.3288L79.6945 64.3181L76.8545 60.3591C76.7435 60.2255 76.5366 60.0272 76.2095 59.7435C75.8586 59.4443 75.4847 59.1732 75.0914 58.9329L75.0905 58.9323C74.6612 58.6687 74.2115 58.4415 73.7363 58.2487C73.2886 58.0693 72.8711 57.9885 72.4828 57.9968L72.0789 58.0055L71.9856 57.6124L71.9058 57.2758L71.8128 56.8837L72.1761 56.7095C72.9714 56.3282 73.6986 55.818 74.3285 55.1992L76.6362 50.2486ZM76.6362 50.2486C76.5384 51.2464 76.2881 52.1619 75.8886 53.0019L75.8882 53.0029M76.6362 50.2486L75.8882 53.0029M75.8882 53.0029C75.5011 53.8214 74.9731 54.5648 74.3286 55.1991L75.8882 53.0029ZM63.2289 56.5538C64.0984 56.5655 64.9121 56.4204 65.6672 56.1108L67.5996 54.6963C68.128 54.0582 68.4811 53.2797 68.6686 52.382L68.6687 52.382L68.6699 52.3755C68.8182 51.616 68.8081 50.7721 68.6472 49.8501H68.6662L68.5208 49.2351C68.2155 47.9434 67.7494 46.8908 67.1016 46.1102L67.1003 46.1086C66.4745 45.3607 65.7684 44.7958 64.9763 44.4405L64.9751 44.44C64.1957 44.0927 63.3893 43.9288 62.5633 43.9584L62.5628 43.9584C61.767 43.9878 61.0443 44.1273 60.3968 44.3938L60.0023 44.5561L60.1005 44.9712L62.7491 56.1689L62.8388 56.5485L63.2289 56.5538Z" fill="white" stroke="black"/>
<path d="M95.2527 62.3979L95.2528 62.3978C96.53 61.8338 97.647 61.0879 98.6121 60.1617C99.566 59.2411 100.289 58.1581 100.786 56.8983C101.266 55.6718 101.395 54.2437 101.14 52.5944C100.796 50.3655 100.027 48.6422 98.8596 47.3929L98.8578 47.3911C97.6702 46.1066 96.0734 45.0522 94.0488 44.2318C92.8648 43.7596 91.6506 43.3675 90.4143 43.0581L95.2527 62.3979ZM95.2527 62.3979C93.961 62.9686 92.6758 63.3519 91.3996 63.5492L95.2527 62.3979ZM80.7929 64.3874L79.2303 54.2584C79.4169 54.537 79.6142 54.8088 79.8217 55.073C80.6893 56.1853 81.6475 57.1399 82.6912 57.9392L82.6919 57.9398C83.736 58.7361 84.8079 59.3497 85.9103 59.7705L85.9107 59.7706C87.027 60.1957 88.1092 60.3437 89.1454 60.1838L80.7929 64.3874ZM80.7929 64.3874C81.0737 64.1634 81.378 64.0047 81.7038 63.9532L80.7929 64.3874ZM86.9012 42.1009L87.0443 41.6218L96.1259 38.774C95.3002 37.959 94.3695 37.2584 93.3585 36.6909C92.369 36.1331 91.3047 35.7209 90.1983 35.4668L90.1966 35.4664C89.1018 35.2189 88.0651 35.1638 87.089 35.314L87.0884 35.3141C85.8609 35.5045 84.7972 35.9151 83.9043 36.5569L83.9028 36.558C82.9754 37.2299 82.5025 38.0989 82.6646 39.1408L82.6647 39.1412C82.7924 39.9581 83.3315 40.5706 84.1427 41.007L84.143 41.0072C84.8994 41.4134 85.8196 41.7778 86.9002 42.1006C86.9006 42.1007 86.9009 42.1008 86.9012 42.1009ZM94.5961 31.6302C94.9042 31.5809 95.1934 31.436 95.4618 31.2306L83.639 49.753C81.7882 49.4065 80.1661 48.6296 78.7673 47.4208L78.767 47.4206C77.4129 46.2524 76.5333 44.5255 76.1719 42.1802L76.1719 42.1799C75.9733 40.8967 76.0844 39.7068 76.4972 38.5954L76.4976 38.5944C76.9135 37.4676 77.5679 36.4399 78.4626 35.5133L78.4628 35.5131C79.3562 34.587 80.46 33.8026 81.7797 33.1669C83.0977 32.5322 84.5563 32.0881 86.1566 31.8418L86.1571 31.8417C87.8332 31.5821 89.3724 31.5252 90.7821 31.6571C92.2639 31.7986 93.5374 31.7955 94.5943 31.6305L94.5961 31.6302ZM93.6761 57.8943C93.9578 57.3809 94.0315 56.7903 93.934 56.1554L89.1461 60.1837C89.76 60.0898 90.3665 59.9527 90.9611 59.7735L90.9623 59.7731C91.5496 59.5945 92.0787 59.3611 92.542 59.0707C93.0276 58.7669 93.4128 58.3742 93.6761 57.8943ZM31.7209 73.3763L31.9087 73.8397L31.7209 73.3764L20.0692 78.0994L20.9572 74.6766L20.9986 74.5171L20.937 74.3643L11.9196 51.9752L11.8579 51.8219L11.717 51.7356L8.70758 49.8918L19.5879 45.4821L19.5882 45.482C20.7224 45.0214 21.9723 44.5849 23.3387 44.1719L23.3389 44.1719C24.6847 43.7645 25.9807 43.5223 27.2256 43.4463L27.2258 43.4462C28.456 43.3706 29.544 43.5145 30.5035 43.8622C31.3877 44.1874 32.0329 44.8254 32.4386 45.8325L32.44 45.8357C32.6404 46.3235 32.7265 46.851 32.6915 47.3775L32.6915 47.378C32.6562 47.9184 32.5303 48.4489 32.3191 48.9472C32.0966 49.4684 31.794 49.9512 31.4223 50.3781L31.4199 50.3808C31.0345 50.83 30.5908 51.2251 30.1006 51.5558L29.7652 51.7822L29.9166 52.1574L29.9903 52.34L30.1578 52.7552L30.5889 52.6344C31.0825 52.496 31.8065 52.4389 32.7916 52.4915L32.7932 52.4916C33.7398 52.5391 34.7313 52.7589 35.772 53.1542C36.7965 53.5439 37.7784 54.1282 38.7204 54.9204L38.7233 54.9228C39.6285 55.6721 40.3504 56.693 40.8767 57.9998L41.3272 57.8184L40.8767 57.9998C42.2379 61.379 42.1003 64.3104 40.5442 66.8541C38.9667 69.4329 36.0547 71.6199 31.7209 73.3763ZM25.0993 49.7003L24.6355 49.8869L25.0992 49.7C24.8918 49.1852 24.5629 48.7756 24.1146 48.4869C23.6936 48.2155 23.2202 48.0472 22.7076 47.9736L22.7071 47.9735C22.1863 47.8994 21.6492 47.9363 21.0987 48.0801L21.0984 48.0802C20.5629 48.2205 20.0448 48.4307 19.552 48.707L19.1684 48.922L19.3327 49.33L21.2242 54.026L21.4013 54.4657L21.8498 54.3123C23.0293 53.9088 23.966 53.3148 24.6287 52.5111C24.9697 52.0999 25.1957 51.6507 25.2784 51.1649C25.3614 50.6775 25.2946 50.1858 25.0993 49.7003ZM34.0432 64.2528C33.9883 63.2726 33.7712 62.3083 33.4007 61.3996C33.0418 60.5154 32.5332 59.6999 31.8974 58.9893C31.2545 58.2608 30.4664 57.6753 29.584 57.2708C28.6881 56.8593 27.6949 56.6714 26.6181 56.6952C25.5171 56.7192 24.366 57.0405 23.1736 57.6326L22.7595 57.8383L22.9322 58.2673L28.1847 71.3085L28.3719 71.7733L28.8363 71.5851C30.0896 71.0772 31.1274 70.4365 31.9297 69.6538C32.7207 68.8831 33.295 68.033 33.6311 67.1008C33.9626 66.1901 34.1029 65.2205 34.0432 64.2528Z" fill="white" stroke="black"/>
<path d="M46.4479 23.536L46.4477 23.5359L29.2073 17.7251H29.0298L28.8804 17.5136L26.854 14.6447L24.0489 23.0653L27.3944 21.9709L27.5523 21.9192L27.7097 21.9723L44.8447 27.7528L46.4479 23.536ZM46.4479 23.536C48.126 24.1006 49.4394 24.8721 50.4086 25.8301L50.4088 25.8302M46.4479 23.536L50.4088 25.8302M50.4088 25.8302C51.4007 26.8098 52.1082 27.8602 52.5417 28.9803L52.5418 28.9805M50.4088 25.8302L52.5418 28.9805M52.5418 28.9805C52.9831 30.1195 53.1974 31.2651 53.1848 32.4178L53.1848 32.4186M52.5418 28.9805L53.1848 32.4186M53.1848 32.4186C53.1738 33.5991 53.0116 34.639 52.7113 35.5455C52.7113 35.5457 52.7112 35.5459 52.7111 35.5461L51.8417 38.1566L51.8415 38.157M53.1848 32.4186L51.8415 38.157M51.8415 38.157C51.3387 39.6713 50.6834 41.0079 49.8788 42.1713L49.8784 42.1719M51.8415 38.157L49.8784 42.1719M49.8784 42.1719C49.0842 43.3237 48.1299 44.2437 47.0198 44.93L47.0188 44.9307M49.8784 42.1719L47.0188 44.9307M47.0188 44.9307C45.9217 45.6124 44.6511 46.018 43.1998 46.1376C41.7615 46.2556 40.1396 46.0213 38.3295 45.4112L21.7643 39.8241L21.6069 39.771M47.0188 44.9307L21.6069 39.771M21.6069 39.771L21.449 39.8227L18.1008 40.9184M21.6069 39.771L18.1008 40.9184M18.1008 40.9184L22.1147 28.8712L24.1278 31.7738L24.2221 31.9097L24.379 31.9626L41.324 37.6742L41.324 37.6742C42.4656 38.0588 43.4723 38.2746 44.3385 38.3055C45.1984 38.3372 45.9562 38.2092 46.5968 37.9064C47.2232 37.6132 47.7571 37.1534 48.1408 36.5772C48.5114 36.0258 48.8182 35.3747 49.0677 34.6268L49.0679 34.6262C49.2978 33.9343 49.4228 33.2569 49.4374 32.5993L49.4374 32.5987C49.4516 31.9199 49.2874 31.2493 48.9611 30.6543C48.6297 30.0444 48.1139 29.4993 47.4475 29.0159L47.4473 29.0157C46.7709 28.5256 45.896 28.1061 44.8453 27.753L18.1008 40.9184ZM120.561 36.1926L120.371 36.0636L120.15 36.1238L115.473 37.3934L114.991 37.5243L115.121 38.0065L120.925 59.4616L120.968 59.6191L121.095 59.7211L123.888 61.9602L111.956 65.203L113.274 61.852L113.334 61.6981L113.291 61.5385L107.487 40.0834L107.356 39.6004L106.873 39.7314L102.197 41.0006L101.975 41.0607L101.876 41.268L99.8365 45.5485L97.6752 37.5557L122.317 30.8569L124.478 38.8515L120.561 36.1926ZM134.428 104.564C134.725 104.87 134.962 105.228 135.128 105.621L135.603 108.471L135.139 108.286C135.139 108.286 135.139 108.286 135.139 108.286C134.784 109.175 134.185 109.781 133.316 110.133L133.314 110.134C132.904 110.301 132.463 110.378 132.022 110.36L132.017 110.359C131.58 110.345 131.15 110.245 130.75 110.066C130.344 109.881 129.973 109.626 129.653 109.314L129.649 109.31C129.328 109.003 129.077 108.63 128.912 108.216L128.911 108.213C128.743 107.801 128.665 107.357 128.684 106.912L128.684 106.908C128.699 106.46 128.79 106.017 128.952 105.599C129.116 105.192 129.356 104.82 129.661 104.505L129.664 104.502C129.969 104.18 130.34 103.928 130.751 103.763L130.754 103.762C131.164 103.594 131.605 103.517 132.047 103.536L132.049 103.536C132.496 103.553 132.937 103.651 133.35 103.825C133.754 103.998 134.12 104.249 134.428 104.564Z" fill="white" stroke="black"/>
<path d="M126.915 58.6432L126.915 58.6431C127.496 57.4824 127.8 56.0887 127.803 54.445C127.803 53.9849 127.719 53.5615 127.551 53.1608C127.38 52.7601 127.134 52.3958 126.828 52.0871C126.506 51.7669 126.127 51.5098 125.711 51.3288L125.707 51.3273C125.29 51.142 124.819 51.0451 124.295 51.0442H124.293C123.275 51.0395 122.461 51.3749 121.81 52.0394C121.148 52.7149 120.825 53.4995 120.821 54.4156C120.817 55.4636 121.11 56.3043 121.674 56.9725C122.216 57.6132 122.878 57.8723 123.724 57.7667C124.217 57.6998 124.811 57.7483 125.104 58.2677C125.104 58.2678 125.104 58.268 125.104 58.2682L124.668 58.5132L126.915 58.6432ZM126.915 58.6432C126.307 59.8585 125.682 60.7729 125.045 61.4064M126.915 58.6432L125.045 61.4064M125.045 61.4064C124.981 61.4701 124.918 61.4987 124.836 61.503C124.838 61.493 124.841 61.4819 124.844 61.4696C124.945 61.1977 125.051 60.8753 125.165 60.5052L125.166 60.5029C125.29 60.0943 125.361 59.7103 125.361 59.3517M125.045 61.4064L125.361 59.3517M125.361 59.3517C125.361 59.3523 125.361 59.3529 125.361 59.3536L124.861 59.3514H125.361C125.361 59.3515 125.361 59.3516 125.361 59.3517ZM129.486 87.8187C129.486 87.8188 129.486 87.8188 129.486 87.8188L129.423 87.8442M129.486 87.8187L129.423 87.8441M129.486 87.8187C129.483 87.8118 129.48 87.8049 129.477 87.7981C129.477 87.7979 129.477 87.7978 129.477 87.7977M129.423 87.8442C129.423 87.8441 129.423 87.8441 129.423 87.8441M129.423 87.8442C129.714 88.5813 129.725 89.3497 129.499 90.0369L129.402 87.7916L129.414 87.8233C129.417 87.8303 129.42 87.8372 129.423 87.8441M129.423 87.8442L129.029 88.0028L129.423 87.8441M82.1437 28.3154L82.2277 28.1034L82.1227 27.9011L79.8819 23.5816L79.651 23.1365L79.2065 23.3687L59.5835 33.6209L59.4382 33.6968L59.3661 33.844L57.7911 37.0561L52.0746 26.0371L55.6132 26.6176L55.7778 26.6446L55.9257 26.5673L75.5487 16.3146L75.9906 16.0838L75.761 15.6412L73.5202 11.3213L73.4146 11.1177L73.1915 11.065L68.5864 9.97581L75.8965 6.1568L87.7036 28.9164L80.3935 32.735L82.1437 28.3154Z" fill="white" stroke="black"/>
</svg>
