<svg width="18" height="11" viewBox="0 0 18 11" fill="none" xmlns="http://www.w3.org/2000/svg">
<path d="M17.3322 0.783971C17.0199 0.473552 16.5975 0.299316 16.1572 0.299316C15.7169 0.299316 15.2945 0.473552 14.9822 0.783971L8.99886 6.68397L3.09886 0.783971C2.78659 0.473552 2.36417 0.299316 1.92386 0.299316C1.48355 0.299316 1.06113 0.473552 0.748857 0.783971C0.592642 0.938909 0.468652 1.12324 0.384037 1.32634C0.299423 1.52944 0.255859 1.74728 0.255859 1.9673C0.255859 2.18732 0.299423 2.40517 0.384037 2.60827C0.468652 2.81136 0.592642 2.9957 0.748857 3.15064L7.81552 10.2173C7.97046 10.3735 8.1548 10.4975 8.35789 10.5821C8.56099 10.6667 8.77884 10.7103 8.99886 10.7103C9.21888 10.7103 9.43672 10.6667 9.63982 10.5821C9.84292 10.4975 10.0273 10.3735 10.1822 10.2173L17.3322 3.15064C17.4884 2.9957 17.6124 2.81136 17.697 2.60827C17.7816 2.40517 17.8252 2.18732 17.8252 1.9673C17.8252 1.74728 17.7816 1.52944 17.697 1.32634C17.6124 1.12324 17.4884 0.938909 17.3322 0.783971Z" fill="#333333"/>
</svg>
