<svg width="546" height="592" viewBox="0 0 546 592" fill="none" xmlns="http://www.w3.org/2000/svg">
<path fill-rule="evenodd" clip-rule="evenodd" d="M227.588 361.186C226.467 363.045 227.192 366.056 227.488 368.047C227.219 363.163 230.58 357.664 232.39 353.314C234.151 349.081 235.62 344.713 236.665 340.24C236.689 340.143 238.896 330.16 235.651 332.067C226.629 337.314 232.45 353.841 227.588 361.186ZM223.703 285.538C226.441 289.14 240.254 306.09 245.26 300.494C249.244 296.041 241.05 285.368 237.618 282.976C231.9 278.999 225.77 275.749 220.289 271.388C220.903 276.487 220.406 281.232 223.703 285.538ZM369.358 288.412C373.771 287.754 378.197 287.068 382.551 286.089C377.497 286.834 372.501 287.442 367.544 288.708L369.359 288.411L369.358 288.412ZM135.547 369.667C134.622 367.332 139.772 363.38 140.984 362.094C144.306 358.564 147.724 354.639 148.314 349.969C149.398 346.304 140.818 348.209 138.226 347.77C136.408 347.462 131.951 346.427 131.02 344.551C129.027 340.533 135.427 338.363 138.22 337.049C142.312 335.126 144.517 334.633 140.166 332.815C135.489 330.863 125.526 331.103 124.408 324.252C123.457 318.416 133.24 315.993 137.124 315.099C144.442 313.409 150.963 314.469 157.833 317.242C159.435 317.887 169.14 321.315 168.492 318.914C166.423 313.664 159.399 312.708 156.661 307.911C155.106 305.185 155.033 302.652 153.057 299.966C151.107 297.314 147.096 293.43 148.94 289.663C150.111 287.273 152.89 286.878 154.996 287.611C160.116 289.018 163.558 292.264 168.073 294.825C171.378 296.697 175.108 295.996 178.001 298.782C182.367 303.099 186.752 307.957 191.579 311.98C193.092 313.241 200.167 318.665 200.616 314.502C200.869 312.159 193.624 308.141 192.445 307.275C189.629 305.206 186.614 303.487 185.086 300.15C184.21 298.238 184.652 296.184 183.956 294.696C181.899 290.299 175.953 287.005 173.313 282.819C170.944 279.063 165.434 269.563 167.03 265.019C169.215 258.798 175.548 265.361 178.654 267.684C182.091 270.256 185.078 272.854 188.857 274.644C192.192 276.226 194.624 277.967 196.982 280.998C201.337 286.597 204.24 292.873 207.74 298.766C207.723 298.749 207.708 298.731 207.694 298.711C209.792 302.098 212.776 305.648 216.378 307.574C222.416 310.801 220.622 306.989 217.673 302.831C213.227 296.56 207.806 290.983 203.341 284.745C201.751 282.523 200.24 280.092 200.009 277.279C199.855 275.393 201.056 273.88 201.097 272.51C201.244 267.746 186.653 241.277 196.619 239.659C202 238.786 205.308 250.791 207.077 253.956C209.904 259.009 211.305 263.428 216.57 266.192C216.078 263.934 217.97 262.343 217.682 260.374C217.34 258.033 214.888 255.987 213.552 254.197C209.879 249.276 206.495 244.038 204.172 238.361C197.086 221.035 215.533 234.133 221.375 238.882C222.496 239.794 223.939 240.937 225.226 241.956C228.605 244.622 229.706 244.118 233.264 245.508C239.316 247.875 242.752 258.697 244.718 264.403C245.327 266.164 255.69 293.894 259.675 286.77C261.684 283.178 255.154 271.269 253.043 267.793C249.797 262.449 241.342 255.104 241.997 248.371C242.203 246.256 243.826 245.367 244.123 243.47C244.822 239.041 240.649 233.294 239.557 229.148C237.334 220.709 241.912 214.655 247.971 224.193C250.368 227.968 252.145 230.188 255.244 233.466C258.779 237.207 258.698 242.354 261.383 246.33C263.602 249.615 263.299 246.361 266.892 248.66C269.874 250.57 270.412 257.272 270.791 260.501C271.318 264.986 270.969 283.596 277.347 283.671C283.16 283.739 281.42 271.744 280.714 268.394C278.949 260.015 273.509 253.878 268.867 247.012C266.605 243.665 263.798 239.707 262.695 235.764C261.73 232.308 262.863 229.692 263.278 226.36C263.761 222.481 264.651 204.651 272.922 210.378C278.478 214.225 276.504 223.984 281.448 228.267C281.979 223.667 279.115 211.692 285.553 209.637C291.769 207.654 294.931 220.735 296.487 225.069C297.439 227.728 299.575 243.341 302.837 245.025C306.243 246.782 307.319 242.266 308.185 239.801C309.669 235.587 321.325 196.889 328.114 201.098C333.38 204.361 323.898 216.291 325.931 219.754C326.677 221.028 328.013 220.004 329.34 220.466C334.202 222.162 335.086 224.63 332.862 229.484C345.818 231.274 331.813 242.396 327.3 246.25C324.226 248.876 310.837 259.864 317.282 264.976C319.449 266.694 325.503 264.932 328.209 265.62C333.43 266.949 334.228 271.837 330.18 275.25C327.397 277.599 323.192 278.743 319.645 279.211C317.609 279.482 311.89 278.708 310.497 280.341C318.142 284.608 311.644 286.711 306.032 288.816C301.835 290.39 290.828 293.986 290.81 299.997C297.72 299.36 304.4 296.86 311.231 295.741C318.711 294.52 325.96 292.932 333.544 290.907C347.925 287.065 363.127 283.679 377.805 281.494C384.984 280.425 392.127 278.894 399.229 277.398C401.79 276.856 414.895 271.701 415.947 276.839C417.368 283.788 397.225 282.506 393.521 284.681C366.979 289.749 340.723 296.349 314.124 300.747C316.494 301.318 321.759 305.331 319.866 308.314C321.939 308.571 325.723 307.907 327.318 309.521C330.842 313.094 326.077 312.566 325.394 314.28C324.229 317.21 330.361 317.858 332.622 318.524C343.164 321.62 353.444 327.101 363.232 332.073C368.602 334.802 380.359 347.619 369.876 351.36C364.644 353.228 356.756 349.085 352.327 346.787C349.533 345.338 342.749 339.665 339.296 340.164C339.1 344.247 344.286 352.346 345.752 355.907C348.856 363.437 350.231 369.235 346.373 376.86C337.206 394.974 329.902 362.175 327.333 363.498C325.527 364.429 328.096 379.72 328.326 381.677C328.834 386.015 329.002 398.414 322.365 399.012C316.796 399.513 314.496 388.468 313.237 384.851C312.181 381.817 310.079 378.776 309.275 375.283C308.612 372.41 309.073 369.356 308.484 366.55C307.872 363.632 305.444 362.051 304.712 358.767C303.886 355.082 303.931 350.76 303.447 346.953C302.638 340.591 301.883 331.82 296.039 327.682C291.386 338.378 298.201 351.58 300.478 362.102C301.616 367.364 303.289 373.756 299.305 378.053C297.704 379.778 298.571 377.431 296.823 379.974C296.43 380.544 296.302 381.555 296.096 382.211C294.627 386.916 293.793 391.762 292.449 396.495C291.616 399.43 289.77 409.338 285.983 410.175C279.114 411.693 278.524 387.289 277.919 382.68C277.464 379.194 277.565 375.383 276.958 371.989C276.403 368.873 274.442 366.78 274.776 363.229C275.208 358.63 277.098 354.104 278.042 349.602C279.312 343.546 279.284 337.865 278.541 331.762C278.233 329.234 277.853 323.315 274.897 322.802C270.147 321.979 271.195 331.53 271.15 334.034C271.017 341.449 272.965 349.612 270.977 357.705C268.923 366.078 273.741 373.845 272.997 382.232C272.728 385.262 272.049 386.656 270.117 388.878C267.972 391.352 266.873 392.476 265.776 396.223C264.782 399.619 260.987 416.596 254.991 411.595C253.045 409.973 254.003 406.324 254.059 404.22C254.18 399.584 254.042 394.932 254.277 390.3C254.426 387.36 255.299 384.026 254.558 381.109C253.855 378.342 252.322 376.913 252.676 373.738C253.151 369.464 256.396 364.531 256.087 360.36C255.795 356.383 254.298 352.492 254.397 348.194C254.478 344.775 257.698 327.032 255.059 326.012C249.695 323.936 249.344 345.851 249.284 347.518C248.896 358.147 250.058 369.481 249.29 380.174C249.031 383.767 247.243 385.619 246.107 388.4C244.597 392.093 244.831 397.021 243.599 400.949C242.617 404.081 240.047 412.268 236.093 408.041C233.234 404.987 234.143 396.645 233.676 392.658C233.151 388.15 232.304 383.742 232.295 379.191C232.293 378.212 232.692 376.293 232.412 375.41C231.629 372.968 228.541 372.457 227.729 369.595C228.413 372.501 228.256 374.875 226.794 377.407C226.414 378.069 224.963 378.919 224.373 379.684C222.592 381.99 221.693 385.413 220.502 388.072C218.826 391.805 207.901 409.155 207.093 396.42C206.748 390.977 207.327 385.426 208.112 380.055C208.728 375.834 210.337 370.779 209.692 366.535C209.023 362.136 208.094 360.853 210.003 356.16C211.966 351.336 215.792 345.155 214.657 339.783C212.342 328.838 202.738 355.073 201.887 357.963C200.166 363.801 197.925 369.888 193.71 374.406C189.01 379.446 183.432 382.625 179.556 388.554C177.828 391.198 172.848 400.264 168.581 397.536C164.379 394.85 169.975 384.726 171.007 381.772C172.073 378.721 173.719 375.509 174.471 372.415C175.151 369.606 174.691 366.884 175.167 364.037C176.514 355.963 183.052 352.286 186.622 345.55C188.506 341.993 188.121 339.541 183.515 341.702C181.027 342.866 179.05 345.929 177.044 347.849C174.029 350.737 170.777 353.415 167.637 356.171C163.397 359.888 139.991 380.998 135.547 369.667Z" fill="#89B99A"/>
<path fill-rule="evenodd" clip-rule="evenodd" d="M414.911 431.174C397.269 400.171 373.606 371.464 350.84 344.119C357.567 345.96 366.443 344.525 372.575 341.474C379.465 338.047 382.953 332.085 385.74 325.196C386.136 324.219 388.725 314.146 390.616 314.688C394.097 315.69 395.101 337.899 395.476 340.613C396.815 350.302 398.885 359.795 401.055 369.33C405.736 389.882 410.825 410.492 414.911 431.174ZM339.567 325.931C334.648 326.276 330.929 319.318 327.757 315.724C333.069 315.519 355.738 309.249 358.448 314.661C362.849 323.465 344.051 325.604 339.567 325.931ZM228.95 158.111C228.929 161.048 228.928 172.38 224.347 168.866C221.247 166.486 219.557 155.827 218.596 152.558C216.635 145.896 213.622 137.689 213.966 130.659C214.619 117.353 223.348 126.431 225.338 133.529C227.535 141.354 228.987 149.954 228.95 158.111ZM263.956 216.401C269.745 212.773 267.422 219.544 265.245 222.773C259.125 231.859 257.771 221.333 263.956 216.401ZM250.917 185.283C249.691 178.682 250.299 169.724 252.184 163.413C253.664 158.456 258.399 153.839 261.304 160.173C263.716 165.431 259.153 179.253 256.721 184.426C254.745 188.633 252.028 192.208 250.917 185.283ZM225.767 187.305C226.85 199.973 215.823 204.61 216.184 190.147C216.407 181.298 223.832 174.762 225.767 187.305ZM249.085 263.649C249.425 268.906 238.378 287.297 237.582 277.149C237.355 274.255 248.499 258.912 249.085 263.649ZM216.69 245.92C212.91 248.371 202.528 256.558 198.599 254.902C192.32 252.253 199.49 244.83 202.28 242.921C205.327 240.834 213.68 235.724 217.881 236.365C225.586 237.545 220.586 243.15 216.69 245.92ZM159.937 170.173C150.564 174.168 147.269 163.008 145.245 156.344C143.922 151.984 139.247 142.868 144.158 139.757C152.984 134.157 162.835 162.948 159.937 170.173ZM191.003 171.486C189.572 167.014 188.456 162.446 187.055 157.966C186.22 155.302 181.854 145.92 182.38 143.69C184.044 136.615 189.759 140.148 193.082 145.335C196.492 150.66 200.057 161.768 199.698 167.878C199.365 173.545 194.074 180.131 191.003 171.486ZM173.714 124.457C171.254 116.677 176.573 110.137 182.671 118.805C189.571 128.607 179.087 138.97 173.714 124.457ZM187.205 261.969C187.563 269.084 163.442 279.809 157.99 276.531C150.812 272.217 165.553 266.849 169.651 264.719C173.112 262.923 186.195 253.813 187.205 261.969ZM144.453 251.362C138.332 253.085 132.057 255.479 125.761 256.343C117.113 257.527 117.187 252.674 123.657 247.575C129.312 243.119 139.887 242.042 146.635 239.344C152.026 237.188 167.664 224.839 171.565 228.663C180.357 237.279 150.232 249.678 144.453 251.362ZM146.086 279.091C146.33 288.763 120.718 292.003 114.991 292.568C118.834 289.834 144.335 265.754 146.086 279.091ZM97.6163 230.323C80.258 229.745 97.6973 217.108 103.548 214.774C107.794 213.077 117.787 209.308 122.107 212.861C133.443 222.185 102.081 230.493 97.6163 230.323ZM99.5872 194.975C99.9848 188.979 128.874 179.944 130.507 185.431C131.792 189.752 100.973 207.557 99.5872 194.975ZM141.147 202.209C152.607 194.357 168.123 201.735 150.94 210.84C147.568 212.624 138.742 217.443 135.002 214.696C129.719 210.817 138.111 204.167 141.147 202.209ZM457.311 228.607C454.47 223.577 450.379 216.55 445.673 221.294C443.844 223.134 441.961 230.82 440.723 233.706C436.387 243.807 431.78 255.085 422.641 261.851C417.171 265.899 398.109 272.436 402.892 260.08C406.97 249.538 420.479 240.204 428.626 232.557C432.402 229.011 441.366 221.733 443.332 216.589C444.83 212.667 441.226 203.438 434.755 205.522C431.818 206.469 431.438 215.053 430.364 217.498C428.665 221.357 425.667 224.382 423.015 227.59C418.813 232.678 414.37 240.136 407.778 242.532C399.852 245.418 397.404 240.777 401.479 233.659C405.464 226.703 414.47 222.225 419.979 216.515C422.72 213.673 431.353 205.361 429.257 201.112C424.692 191.86 418.317 205.394 416.048 208.145C414.27 210.297 403.481 224.187 400.114 221.533C396.067 218.346 405.13 205.505 406.799 202.762C410.32 196.973 411.858 197.298 407.401 194.206C404.856 192.436 399.549 190.919 396.735 191.319C389.828 192.299 382.762 198.674 375.641 200.364C372.694 201.065 362.654 200.907 361.438 205.42C359.565 212.365 389.767 229.01 373.854 232.799C361.555 235.722 349.992 216.675 339.881 224.511C323.903 236.898 349.275 244.435 359.022 247.003C363.392 248.156 377.783 248.656 375.681 256.384C373.97 262.667 362.038 261.281 357.438 260.509C348.723 259.051 340.834 254.831 332.686 251.696C330.487 250.853 321.649 246.058 318.998 247.09C315.202 248.575 310.602 263.399 312.813 266.894C315.539 271.197 330.518 269.696 335.582 269.806C344.14 269.988 354.634 269.679 361.927 275.009C369.978 280.893 360.025 281.811 354.525 281.573C342.657 281.057 330.544 276.86 318.914 274.585C314.858 273.789 308.819 271.628 304.789 272.182C298.686 273.025 299.971 273.448 302.48 278.432C308.076 289.555 313.758 290.807 326.138 291.67C331.785 292.061 356.492 288.811 358.435 296.346C352.365 301.125 337.64 298.511 330.476 298.41C325.234 298.334 316.738 299.542 312.18 297.008C305.975 293.55 298.128 280.657 293.579 275.482C285.509 266.303 277.566 257.17 268.734 248.688C278.371 250.055 287.397 253.109 297.159 250.697C307.831 248.058 318.06 240.928 319.636 229.457C320.212 225.259 319.513 220.951 319.213 216.765C319.115 215.428 319.18 214.054 319.02 212.72C318.321 206.922 318.804 205.033 314.82 209.23C310.288 214.005 307.14 224.876 299.347 226.897C290.717 229.137 295.345 222.671 298.853 218.895C307.516 209.57 316.992 201.457 318.426 187.65C319.208 180.12 318.77 171.857 317.409 164.347C316.1 157.129 314.797 157.349 312.357 163.262C307.062 176.087 298.807 186.653 287.833 195.229C285.73 196.874 281.013 200.899 277.838 198.621C274.964 196.561 277.052 192.664 277.834 189.718C279.557 183.211 282.038 177.179 284.483 170.924C287.703 162.684 293.306 151.568 293.535 142.694C293.684 136.931 289.015 134.456 284.891 130.845C280.069 126.62 275.743 122.119 272.003 116.899C269.397 113.263 266.587 107.807 262.662 105.418C256.569 101.707 257.935 106.337 258.394 110.967C258.763 114.666 264.112 151.197 255.444 149.32C246.843 147.459 250.464 113.078 249.271 105.532C247.688 95.5336 233.804 96.8914 225.403 95.0656C220.973 94.1003 216.914 93.5955 212.711 91.9614C211.121 91.3428 209.316 88.6451 207.529 89.4581C203.469 91.3014 219.84 106.337 215.586 111.666C208.404 120.663 201.158 96.9034 199.102 92.5697C197.374 88.9246 195.311 84.6556 192.888 81.4873C189.144 76.5945 188.638 77.7757 183.128 79.4157C177.617 81.0558 164.457 80.9149 160.296 84.5581C156.272 88.0822 161.407 90.6669 164.195 93.8711C166.835 96.9034 175.393 107.193 168.18 109.325C165.575 110.095 156.122 102.403 153.674 100.821C148.476 97.4606 149.597 98.2262 145.233 99.3279C140.162 100.605 134.454 102.245 129.576 103.973C123.458 106.14 122.001 107.169 126.586 111.552C131.963 116.687 140.014 119.78 142.662 127.127C143.95 130.3 143.102 133.849 139.095 133.912C134.82 133.981 132.875 128.146 131.229 125.018C129.145 121.06 125.233 111.75 120.159 110.919C116.988 110.399 113.077 114.228 110.394 115.618C108.806 116.44 101.655 118.575 101.079 120.781C100.447 123.203 108.696 128.455 110.932 131.038C116.638 137.628 122.702 145.77 124.86 153.701C126.526 166.649 111.535 150.916 109.171 146.989C106.549 142.635 98.1351 120.124 90.6026 122.403C88.5515 123.025 87.2845 128.023 85.6061 129.659C83.5498 131.662 80.9099 132.468 78.4416 133.712C74.7823 135.558 71.1202 137.402 67.6133 139.488C66.5296 140.132 63.5832 142.006 62.996 142.43C62.554 142.752 61.5758 142.54 61.0387 142.944C57.3701 145.706 55.6578 151.294 52.3118 154.653C50.8104 156.161 44.1354 160.276 44.6264 162.412C45.0735 164.358 76.8503 165.884 81.6109 166.412C85.2309 166.812 100.432 166.178 102.289 169.715C104.104 173.175 101.031 174.393 98.0417 175.539C90.6227 178.382 81.2739 179.055 73.4661 180.452C67.9505 181.438 45.3618 182.843 42.4356 188.325C39.4146 193.985 43.0881 197.86 47.3033 198.636C51.9177 199.49 58.5819 197.542 63.0917 196.891C66.7648 196.361 90.2121 190.551 91.4175 195.957C92.7277 201.839 64.6968 206.774 61.9216 207.52C56.6183 208.947 47.6692 209.202 42.9894 211.927C38.7955 214.374 40.3619 214.658 41.5272 218.675C45.552 232.557 46.9817 229.843 59.2556 226.724C63.9545 225.529 69.9895 223.394 74.4727 225.97C79.8295 229.042 79.5386 232.891 74.7478 235.542C71.4561 237.366 64.5851 237.796 60.8988 238.334C56.5899 238.965 52.2238 239.183 47.8738 239.231C46.5952 239.246 41.0006 238.317 39.7822 239.14C34.9958 242.37 46.5731 259.194 51.5706 259.85C53.9963 260.169 57.938 258.514 60.3459 258.048C68.7608 256.409 77.3193 255.541 85.7658 253.983C90.5224 253.107 112.791 246.595 108.801 258.13C106.596 264.501 90.4872 267.714 85.144 269.534C80.003 271.286 74.8484 272.848 69.599 274.24C64.6945 275.54 61.838 275.007 65.1044 280.434C68.4297 285.957 88.2333 302.807 94.4511 302.273C99.5526 301.832 97.6568 299.473 103.381 302.877C105.482 304.13 107.613 306.191 109.435 307.812C116.434 314.027 123.629 322.994 133.4 324.732C154.287 328.451 182.81 300.505 196.295 287.525C198.975 284.947 209.215 272.298 214.199 275.125C219.437 278.093 210.35 289.904 208.545 292.17C198.487 304.811 185.953 316.943 171.061 323.519C167.093 325.269 155.979 326.949 152.22 330.041C148.492 333.105 152.306 334.092 156.263 336.699C164.703 342.253 175.985 350.446 186.358 347.042C200.015 342.559 207.344 328.234 214.981 316.99C219.218 310.756 239.069 281.3 239.332 304.397C239.459 315.895 232.173 329.057 224.336 336.964C222.871 338.44 213.397 343.161 213.596 344.284C213.899 345.988 219.578 346.719 220.615 346.942C230.667 349.104 260.859 352.05 265.093 339.107C267.997 330.227 264.458 316.038 263.21 307.108C262.821 304.334 260.878 299.877 264.865 298.994C269.971 297.863 274.349 315.703 274.731 318.53C275.518 324.342 274.642 330.399 272.44 336.395C271.471 339.029 268.817 341.382 272.279 341.794C273.534 341.942 280.556 335.258 281.657 334.142C287.257 328.442 287.637 322.022 287.179 314.465C285.935 294.072 276.449 274.19 265.415 257.23C278.608 270.914 291.196 285.082 303.378 299.678C306.422 303.325 308.561 307.786 311.564 311.306C315.897 316.38 321.231 320.507 325.739 325.925C324.412 325.791 312.919 322.695 312.586 325.826C312.284 328.675 322.031 333.088 324.028 334.143C333.017 338.903 336.554 339.319 343.62 347.939C361.204 369.395 377.27 391.639 393.007 414.461C400.698 425.615 408.798 436.605 415.57 448.353C418.968 454.245 421.694 460.535 424.278 466.818C426.055 471.139 428.287 484.183 433.825 485.568C440.263 487.18 438.686 480.094 437.379 476.754C434.429 469.227 432.285 461.898 430.186 454.041C426.773 441.262 424.203 428.275 420.473 415.569C415.818 399.713 411.984 383.727 408.145 367.662C405.653 357.235 403.512 346.633 401.908 336.028C400.807 328.745 401.083 320.945 399.13 313.808C406.738 320.665 405.257 333.054 417.962 333.94C427.781 334.626 434.876 326.701 440.493 319.708C445.073 314.005 451.657 305.386 452.546 297.893C453.606 288.952 446.113 295.347 440.529 297.284C436.925 298.536 426.99 304.252 424.025 300.839C419.877 296.063 434.677 289.856 437.538 288.037C443.832 284.041 450.811 279.185 455.605 273.328C457.498 271.013 465.341 245.876 456.639 249.291C455.535 249.724 453.998 253.238 453.107 254.474C448.977 260.204 444.284 265.374 439.22 270.286C433.7 275.637 421.65 288.23 412.447 285.503C416.177 274.209 431.795 268.321 440.238 260.916C445.663 256.16 450.36 250.905 453.586 244.385C455.189 241.141 459.267 232.055 457.311 228.607Z" fill="#02362C"/>
</svg>
